<svg id="Layer_1" data-name="Layer 1" xmlns="http://www.w3.org/2000/svg" xmlns:xlink="http://www.w3.org/1999/xlink" width="200" height="200" viewBox="0 0 200 200"><defs><style>.cls-1{fill:none;}.cls-2{clip-path:url(#clip-path);}.cls-3{fill:#5865f2;}.cls-4{fill:#fff;}</style><clipPath id="clip-path"><rect class="cls-1" x="14" y="14" width="172" height="172"/></clipPath></defs><title>discord_logo-freelogovectors.net_</title><g class="cls-2"><path class="cls-3" d="M14,99.76a85.76,85.76,0,1,1,85.76,85.75A85.75,85.75,0,0,1,14,99.76Z"/><path class="cls-4" d="M138.39,64.9a90.87,90.87,0,0,0-22.82-7.05c-1,1.75-2.13,4.1-2.92,6a85.74,85.74,0,0,0-25.29,0,64.77,64.77,0,0,0-3-6,90.14,90.14,0,0,0-22.84,7.08C47.12,86.4,43.21,107.36,45.16,128a91.76,91.76,0,0,0,28,14.13,68.87,68.87,0,0,0,6-9.73,59.33,59.33,0,0,1-9.44-4.51Q70.9,127,72,126.1a65.49,65.49,0,0,0,56,0c.75.62,1.53,1.22,2.31,1.8a59.17,59.17,0,0,1-9.46,4.53,68,68,0,0,0,6,9.71,91.24,91.24,0,0,0,28-14.13C157.13,104.08,150.91,83.31,138.39,64.9ZM81.62,115.32c-5.46,0-9.94-5-9.94-11.14S76.06,93,81.62,93s10,5,9.95,11.15S87.18,115.32,81.62,115.32Zm36.75,0c-5.46,0-9.94-5-9.94-11.14S112.81,93,118.37,93s10,5,9.94,11.15S123.93,115.32,118.37,115.32Z"/></g><rect class="cls-1" width="200" height="200"/></svg>